<svg width="20" height="25" viewBox="0 0 20 25" fill="none" xmlns="http://www.w3.org/2000/svg">
<g clip-path="url(#clip0_1_99)">
<path d="M4.98276 2.53828C4.15653 3.16453 1.8383 6.59217 6.39435 14.551C11.1956 22.9336 15.6393 22.6763 16.5243 22.1319L13.2868 16.6307C12.5506 17.0657 11.9107 16.3175 10.7282 14.6913C9.94516 13.6178 9.08182 12.225 8.40014 10.7353C7.92116 9.69265 7.53159 8.6279 8.30407 8.17308L4.98276 2.53828Z" fill="#254C69" fill-opacity="0.6"/>
<path d="M18.4286 21.0223C18.77 20.8216 18.8444 20.3879 18.653 20.0637L18.6544 20.0572C18.6544 20.0572 16.1298 15.7752 16.1284 15.7739C15.9283 15.4327 15.5059 15.3204 15.1839 15.5088L13.688 16.3892L16.9327 21.9026C16.9327 21.9026 18.4264 21.027 18.4246 21.0247L18.4286 21.0223Z" fill="#254C69" fill-opacity="0.6"/>
<path d="M10.2075 7.05265C10.5489 6.85195 10.6234 6.41827 10.4319 6.09404L10.4333 6.08758C10.4333 6.08758 7.83601 1.68198 7.8346 1.68064C7.63443 1.33944 7.21207 1.22717 6.89007 1.41558L5.39423 2.2959L8.71167 7.93296C8.71167 7.93296 10.2053 7.05741 10.2035 7.05502L10.2075 7.05265Z" fill="#254C69" fill-opacity="0.6"/>
</g>
<defs>
<clipPath id="clip0_1_99">
<rect width="7.98937" height="22.9029" fill="white" transform="translate(0.596985 5.0376) rotate(-30.4771)"/>
</clipPath>
</defs>
</svg>
